<mxfile host="app.diagrams.net" modified="2024-07-11T06:23:31.337Z" agent="Mozilla/5.0 (Macintosh; Intel Mac OS X 10_15_7) AppleWebKit/537.36 (KHTML, like Gecko) Chrome/126.0.0.0 Safari/537.36" etag="jkjkwCPNQ9J21_FX46al" version="24.6.4" type="github" pages="3">
  <diagram name="第 1 页" id="XVFi17vBp5Y42zeDhlXB">
    <mxGraphModel dx="596" dy="336" grid="1" gridSize="10" guides="1" tooltips="1" connect="1" arrows="1" fold="1" page="1" pageScale="1" pageWidth="827" pageHeight="1169" math="0" shadow="0">
      <root>
        <mxCell id="0" />
        <mxCell id="1" parent="0" />
        <mxCell id="EDzq5u1I3e7pyLrrv-iS-10" style="edgeStyle=orthogonalEdgeStyle;rounded=0;orthogonalLoop=1;jettySize=auto;html=1;exitX=0.5;exitY=1;exitDx=0;exitDy=0;exitPerimeter=0;" edge="1" parent="1" source="EDzq5u1I3e7pyLrrv-iS-1" target="EDzq5u1I3e7pyLrrv-iS-2">
          <mxGeometry relative="1" as="geometry" />
        </mxCell>
        <mxCell id="EDzq5u1I3e7pyLrrv-iS-1" value="用户上传csv文件" style="strokeWidth=2;html=1;shape=mxgraph.flowchart.start_1;whiteSpace=wrap;" vertex="1" parent="1">
          <mxGeometry x="210" y="140" width="100" height="60" as="geometry" />
        </mxCell>
        <mxCell id="EDzq5u1I3e7pyLrrv-iS-11" style="edgeStyle=orthogonalEdgeStyle;rounded=0;orthogonalLoop=1;jettySize=auto;html=1;exitX=0.5;exitY=1;exitDx=0;exitDy=0;" edge="1" parent="1" source="EDzq5u1I3e7pyLrrv-iS-2" target="EDzq5u1I3e7pyLrrv-iS-4">
          <mxGeometry relative="1" as="geometry" />
        </mxCell>
        <mxCell id="EDzq5u1I3e7pyLrrv-iS-2" value="计算文件hash，组装上链数据" style="rounded=1;whiteSpace=wrap;html=1;absoluteArcSize=1;arcSize=14;strokeWidth=2;" vertex="1" parent="1">
          <mxGeometry x="210" y="230" width="100" height="50" as="geometry" />
        </mxCell>
        <mxCell id="EDzq5u1I3e7pyLrrv-iS-14" style="edgeStyle=orthogonalEdgeStyle;rounded=0;orthogonalLoop=1;jettySize=auto;html=1;exitX=0.5;exitY=1;exitDx=0;exitDy=0;" edge="1" parent="1" source="EDzq5u1I3e7pyLrrv-iS-4" target="EDzq5u1I3e7pyLrrv-iS-13">
          <mxGeometry relative="1" as="geometry" />
        </mxCell>
        <mxCell id="EDzq5u1I3e7pyLrrv-iS-4" value="调用数据存证接口上链" style="rounded=1;whiteSpace=wrap;html=1;absoluteArcSize=1;arcSize=14;strokeWidth=2;" vertex="1" parent="1">
          <mxGeometry x="210" y="310" width="100" height="50" as="geometry" />
        </mxCell>
        <mxCell id="EDzq5u1I3e7pyLrrv-iS-13" value="完成" style="strokeWidth=2;html=1;shape=mxgraph.flowchart.terminator;whiteSpace=wrap;" vertex="1" parent="1">
          <mxGeometry x="210" y="390" width="100" height="60" as="geometry" />
        </mxCell>
      </root>
    </mxGraphModel>
  </diagram>
  <diagram id="XQcjrRY4BTn0tDCiadOz" name="第 2 页">
    <mxGraphModel dx="867" dy="488" grid="1" gridSize="10" guides="1" tooltips="1" connect="1" arrows="1" fold="1" page="1" pageScale="1" pageWidth="827" pageHeight="1169" math="0" shadow="0">
      <root>
        <mxCell id="0" />
        <mxCell id="1" parent="0" />
        <mxCell id="dEY_yh_FPpw1pflBIQTM-5" style="edgeStyle=orthogonalEdgeStyle;rounded=0;orthogonalLoop=1;jettySize=auto;html=1;exitX=0.5;exitY=1;exitDx=0;exitDy=0;exitPerimeter=0;" edge="1" parent="1" source="dEY_yh_FPpw1pflBIQTM-1" target="dEY_yh_FPpw1pflBIQTM-2">
          <mxGeometry relative="1" as="geometry" />
        </mxCell>
        <mxCell id="dEY_yh_FPpw1pflBIQTM-1" value="输入文件哈希" style="strokeWidth=2;html=1;shape=mxgraph.flowchart.start_1;whiteSpace=wrap;" vertex="1" parent="1">
          <mxGeometry x="210" y="140" width="100" height="60" as="geometry" />
        </mxCell>
        <mxCell id="dEY_yh_FPpw1pflBIQTM-6" style="edgeStyle=orthogonalEdgeStyle;rounded=0;orthogonalLoop=1;jettySize=auto;html=1;exitX=0.5;exitY=1;exitDx=0;exitDy=0;entryX=0.5;entryY=0;entryDx=0;entryDy=0;" edge="1" parent="1" source="dEY_yh_FPpw1pflBIQTM-2" target="dEY_yh_FPpw1pflBIQTM-3">
          <mxGeometry relative="1" as="geometry" />
        </mxCell>
        <mxCell id="dEY_yh_FPpw1pflBIQTM-2" value="根据哈希，查询数据库，得到此哈希上链的业务ID" style="rounded=1;whiteSpace=wrap;html=1;absoluteArcSize=1;arcSize=14;strokeWidth=2;" vertex="1" parent="1">
          <mxGeometry x="210" y="230" width="100" height="50" as="geometry" />
        </mxCell>
        <mxCell id="dEY_yh_FPpw1pflBIQTM-7" style="edgeStyle=orthogonalEdgeStyle;rounded=0;orthogonalLoop=1;jettySize=auto;html=1;exitX=0.5;exitY=1;exitDx=0;exitDy=0;" edge="1" parent="1" source="dEY_yh_FPpw1pflBIQTM-3" target="dEY_yh_FPpw1pflBIQTM-4">
          <mxGeometry relative="1" as="geometry" />
        </mxCell>
        <mxCell id="dEY_yh_FPpw1pflBIQTM-3" value="调用取证接口，从链上获取存证内容" style="rounded=1;whiteSpace=wrap;html=1;absoluteArcSize=1;arcSize=14;strokeWidth=2;" vertex="1" parent="1">
          <mxGeometry x="210" y="310" width="100" height="50" as="geometry" />
        </mxCell>
        <mxCell id="dEY_yh_FPpw1pflBIQTM-4" value="返回存在内容" style="strokeWidth=2;html=1;shape=mxgraph.flowchart.terminator;whiteSpace=wrap;" vertex="1" parent="1">
          <mxGeometry x="210" y="390" width="100" height="60" as="geometry" />
        </mxCell>
      </root>
    </mxGraphModel>
  </diagram>
  <diagram id="-TOAAn1V35dDrUI3jfic" name="第 3 页">
    <mxGraphModel dx="954" dy="537" grid="1" gridSize="10" guides="1" tooltips="1" connect="1" arrows="1" fold="1" page="1" pageScale="1" pageWidth="827" pageHeight="1169" math="0" shadow="0">
      <root>
        <mxCell id="0" />
        <mxCell id="1" parent="0" />
        <mxCell id="NiIdaHHzRkvUUEWE3C7t-2" value="隐私计算平台" style="shape=umlLifeline;perimeter=lifelinePerimeter;whiteSpace=wrap;html=1;container=1;dropTarget=0;collapsible=0;recursiveResize=0;outlineConnect=0;portConstraint=eastwest;newEdgeStyle={&quot;curved&quot;:0,&quot;rounded&quot;:0};" vertex="1" parent="1">
          <mxGeometry x="30" y="40" width="100" height="300" as="geometry" />
        </mxCell>
        <mxCell id="NiIdaHHzRkvUUEWE3C7t-3" value="DID SDK" style="shape=umlLifeline;perimeter=lifelinePerimeter;whiteSpace=wrap;html=1;container=1;dropTarget=0;collapsible=0;recursiveResize=0;outlineConnect=0;portConstraint=eastwest;newEdgeStyle={&quot;curved&quot;:0,&quot;rounded&quot;:0};" vertex="1" parent="1">
          <mxGeometry x="250" y="40" width="100" height="300" as="geometry" />
        </mxCell>
        <mxCell id="NiIdaHHzRkvUUEWE3C7t-4" value="区块链节点" style="shape=umlLifeline;perimeter=lifelinePerimeter;whiteSpace=wrap;html=1;container=1;dropTarget=0;collapsible=0;recursiveResize=0;outlineConnect=0;portConstraint=eastwest;newEdgeStyle={&quot;curved&quot;:0,&quot;rounded&quot;:0};" vertex="1" parent="1">
          <mxGeometry x="470" y="40" width="100" height="300" as="geometry" />
        </mxCell>
        <mxCell id="NiIdaHHzRkvUUEWE3C7t-5" value="1.创建DID Document" style="html=1;verticalAlign=bottom;endArrow=block;curved=0;rounded=0;" edge="1" parent="1" target="NiIdaHHzRkvUUEWE3C7t-3">
          <mxGeometry x="0.0023" width="80" relative="1" as="geometry">
            <mxPoint x="80" y="110" as="sourcePoint" />
            <mxPoint x="160" y="110" as="targetPoint" />
            <mxPoint as="offset" />
          </mxGeometry>
        </mxCell>
        <mxCell id="NiIdaHHzRkvUUEWE3C7t-6" value="2.返回DID Document及私钥" style="html=1;verticalAlign=bottom;endArrow=open;dashed=1;endSize=8;curved=0;rounded=0;" edge="1" parent="1" target="NiIdaHHzRkvUUEWE3C7t-2">
          <mxGeometry x="-0.0012" relative="1" as="geometry">
            <mxPoint x="300" y="140" as="sourcePoint" />
            <mxPoint x="220" y="140" as="targetPoint" />
            <mxPoint as="offset" />
          </mxGeometry>
        </mxCell>
        <mxCell id="NiIdaHHzRkvUUEWE3C7t-7" value="3.将DID Document上链" style="html=1;verticalAlign=bottom;endArrow=block;curved=0;rounded=0;" edge="1" parent="1">
          <mxGeometry width="80" relative="1" as="geometry">
            <mxPoint x="80" y="170" as="sourcePoint" />
            <mxPoint x="300" y="170" as="targetPoint" />
            <mxPoint as="offset" />
          </mxGeometry>
        </mxCell>
        <mxCell id="NiIdaHHzRkvUUEWE3C7t-8" value="4.调用智能合约检查上链" style="html=1;verticalAlign=bottom;endArrow=block;curved=0;rounded=0;" edge="1" parent="1">
          <mxGeometry width="80" relative="1" as="geometry">
            <mxPoint x="300" y="210" as="sourcePoint" />
            <mxPoint x="520" y="210" as="targetPoint" />
            <mxPoint as="offset" />
          </mxGeometry>
        </mxCell>
        <mxCell id="NiIdaHHzRkvUUEWE3C7t-9" value="5.返回上链结果" style="html=1;verticalAlign=bottom;endArrow=open;dashed=1;endSize=8;curved=0;rounded=0;" edge="1" parent="1">
          <mxGeometry x="-0.0012" relative="1" as="geometry">
            <mxPoint x="520" y="240" as="sourcePoint" />
            <mxPoint x="300" y="240" as="targetPoint" />
            <mxPoint as="offset" />
          </mxGeometry>
        </mxCell>
        <mxCell id="NiIdaHHzRkvUUEWE3C7t-10" value="6.返回上链结果" style="html=1;verticalAlign=bottom;endArrow=open;dashed=1;endSize=8;curved=0;rounded=0;" edge="1" parent="1">
          <mxGeometry x="-0.0012" relative="1" as="geometry">
            <mxPoint x="300" y="270" as="sourcePoint" />
            <mxPoint x="80" y="270" as="targetPoint" />
            <mxPoint as="offset" />
          </mxGeometry>
        </mxCell>
      </root>
    </mxGraphModel>
  </diagram>
</mxfile>
